<?xml version="1.0" encoding="UTF-8"?>
<svg xmlns="http://www.w3.org/2000/svg" xmlns:xlink="http://www.w3.org/1999/xlink" width="212px" height="150px" viewBox="0 0 128 150" version="1.1">
<defs>
<linearGradient id="linear0" gradientUnits="userSpaceOnUse" x1="219.61" y1="354.01999" x2="219.61" y2="362.28" gradientTransform="matrix(2.183933,0,0,2.138807,-255.63394,-295.53393)">
<stop offset="0" style="stop-color:rgb(100%,69.411765%,25.882353%);stop-opacity:1;"/>
<stop offset="1" style="stop-color:rgb(78.431373%,46.27451%,0%);stop-opacity:1;"/>
</linearGradient>
<linearGradient id="linear1" gradientUnits="userSpaceOnUse" x1="238.98" y1="354.01999" x2="238.98" y2="362.28" gradientTransform="matrix(2.183933,0,0,2.138807,-297.94116,-295.53393)">
<stop offset="0" style="stop-color:rgb(100%,69.411765%,25.882353%);stop-opacity:1;"/>
<stop offset="1" style="stop-color:rgb(78.431373%,46.27451%,0%);stop-opacity:1;"/>
</linearGradient>
<linearGradient id="linear2" gradientUnits="userSpaceOnUse" x1="229.44" y1="354.01999" x2="229.44" y2="362.28" gradientTransform="matrix(2.183933,0,0,2.138807,-277.08638,-295.53393)">
<stop offset="0" style="stop-color:rgb(100%,69.411765%,25.882353%);stop-opacity:1;"/>
<stop offset="1" style="stop-color:rgb(78.431373%,46.27451%,0%);stop-opacity:1;"/>
</linearGradient>
<linearGradient id="linear3" gradientUnits="userSpaceOnUse" x1="176.39" y1="354.01999" x2="176.39" y2="362.28" gradientTransform="matrix(2.183933,0,0,2.138807,-161.23693,-295.53393)">
<stop offset="0" style="stop-color:rgb(100%,69.411765%,25.882353%);stop-opacity:1;"/>
<stop offset="1" style="stop-color:rgb(78.431373%,46.27451%,0%);stop-opacity:1;"/>
</linearGradient>
<linearGradient id="linear4" gradientUnits="userSpaceOnUse" x1="195.75" y1="354.01999" x2="195.75" y2="362.28" gradientTransform="matrix(2.183933,0,0,2.138807,-203.5127,-295.53393)">
<stop offset="0" style="stop-color:rgb(100%,69.411765%,25.882353%);stop-opacity:1;"/>
<stop offset="1" style="stop-color:rgb(78.431373%,46.27451%,0%);stop-opacity:1;"/>
</linearGradient>
<linearGradient id="linear5" gradientUnits="userSpaceOnUse" x1="186.21001" y1="354.01999" x2="186.21001" y2="362.28" gradientTransform="matrix(2.183933,0,0,2.138807,-182.68937,-295.53393)">
<stop offset="0" style="stop-color:rgb(100%,69.411765%,25.882353%);stop-opacity:1;"/>
<stop offset="1" style="stop-color:rgb(78.431373%,46.27451%,0%);stop-opacity:1;"/>
</linearGradient>
<linearGradient id="linear6" gradientUnits="userSpaceOnUse" x1="375.01999" y1="615.83002" x2="393.92999" y2="680.22998" gradientTransform="matrix(0.622278,0,0,0.622955,-28.05569,79.130535)">
<stop offset="0" style="stop-color:rgb(66.27451%,66.27451%,66.27451%);stop-opacity:1;"/>
<stop offset="0.26286" style="stop-color:rgb(61.176471%,61.176471%,61.176471%);stop-opacity:1;"/>
<stop offset="0.48949" style="stop-color:rgb(59.215686%,59.607843%,61.176471%);stop-opacity:1;"/>
<stop offset="0.77823" style="stop-color:rgb(61.960784%,62.352941%,63.137255%);stop-opacity:1;"/>
<stop offset="1" style="stop-color:rgb(67.45098%,67.45098%,67.45098%);stop-opacity:1;"/>
</linearGradient>
</defs>
<g id="surface1">
<path style=" stroke:none;fill-rule:nonzero;fill:rgb(25.098039%,25.098039%,25.098039%);fill-opacity:1;" d="M 113.609375 129.296875 C 113.609375 129.296875 113.152344 82.128906 104.871094 72.582031 C 100.15625 67.140625 91.476562 59.625 89.046875 54.703125 C 84.742188 59.644531 79.824219 60.476562 79.824219 60.476562 C 82.179688 59.28125 85.566406 55.824219 88.402344 52.613281 C 88.214844 49.542969 87.929688 26.355469 80.203125 11.65625 C 76.28125 4.199219 72.390625 1.078125 61.644531 1.726562 C 56.859375 2.015625 54.066406 4.558594 47.027344 12.082031 C 39.984375 19.605469 40.609375 47.695312 40.609375 53.195312 C 40.609375 53.882812 40.507812 54.578125 40.316406 55.277344 C 42.554688 57.542969 45.796875 60.582031 48.492188 62.152344 L 39.164062 57.964844 C 36.847656 61.996094 31.992188 66.132812 26.355469 70.265625 C 18.472656 76.054688 17.398438 129.585938 17.398438 129.585938 L 27.621094 129.585938 C 28.917969 121.9375 30.589844 110.363281 30.589844 101.617188 C 30.589844 101.617188 31.558594 118.558594 29.386719 129.585938 L 46.398438 129.585938 C 45.28125 120.152344 43.992188 112.105469 43.992188 112.105469 C 45.683594 118.882812 46.933594 124.65625 47.84375 129.585938 L 49.53125 129.585938 C 48.765625 125.167969 48.136719 120.738281 48.136719 118.035156 C 48.136719 118.035156 49.339844 123.507812 50.453125 129.585938 L 57.503906 129.585938 C 56.753906 115.710938 53.640625 96.234375 53.640625 96.234375 C 57.644531 112.320312 59.199219 122.777344 59.539062 129.585938 L 65.027344 129.585938 C 65.027344 129.585938 67.757812 82.597656 63.152344 69.339844 C 63.152344 69.339844 63.15625 69.34375 63.15625 69.34375 C 62.4375 67.976562 61.617188 66.792969 60.675781 65.828125 C 48.285156 53.09375 45.65625 45.378906 45.09375 30.910156 C 44.53125 16.441406 56.292969 6.894531 62.210938 6.605469 C 66.710938 6.382812 76.574219 14.996094 79.109375 20.78125 C 81.640625 26.570312 80.957031 42.964844 73.351562 56.5625 C 69.660156 63.164062 66.082031 68.71875 64.390625 74.644531 C 65.664062 78.890625 68.242188 86.316406 68.96875 97.464844 C 69.777344 109.878906 68.96875 129.292969 68.96875 129.292969 L 77.777344 129.292969 C 78.171875 119.910156 77.734375 108.882812 77.734375 108.882812 C 79.328125 117.832031 79.6875 124.441406 79.4375 129.292969 L 85.195312 129.292969 C 85.382812 111.410156 88.214844 87.351562 88.214844 87.351562 C 87.519531 101.746094 87.539062 117.449219 87.722656 129.292969 L 100.191406 129.292969 C 100.367188 124.082031 100.710938 118.46875 101.390625 115.371094 C 101.390625 115.371094 101.390625 122.335938 101.101562 129.292969 L 113.609375 129.292969 Z M 56.519531 66.632812 C 56.519531 66.632812 48.269531 69.1875 42.902344 63.671875 C 42.902344 63.671875 46.832031 67.441406 56.519531 66.632812 Z M 73.546875 69.59375 C 73.667969 69.550781 73.789062 69.507812 73.910156 69.460938 C 73.679688 69.546875 73.546875 69.59375 73.546875 69.59375 Z M 74.039062 69.414062 C 78.71875 67.632812 85.070312 62.867188 85.070312 62.867188 C 81.636719 66.394531 75.765625 68.769531 74.039062 69.414062 Z M 74.039062 69.414062 "/>
<path style=" stroke:none;fill-rule:nonzero;fill:rgb(0%,0%,0%);fill-opacity:1;" d="M 60.53125 64.960938 C 59.355469 64.519531 58.410156 63.773438 56.746094 61.964844 C 54.746094 59.792969 50.140625 53.65625 49.546875 52.371094 C 49.199219 51.625 47.753906 46.75 47.265625 44.695312 C 46.378906 40.941406 45.785156 37.117188 45.460938 33.023438 C 45.152344 29.128906 45.429688 21.859375 46.023438 18.164062 C 46.148438 17.398438 46.253906 17.347656 48.972656 16.714844 C 58.605469 14.472656 68.222656 14.863281 77.503906 17.875 C 79.117188 18.394531 79.566406 18.597656 79.652344 18.835938 C 79.839844 19.351562 80.082031 23.125 80.136719 26.382812 C 80.265625 34.292969 79.160156 42.25 76.78125 50.507812 C 76.121094 52.796875 75.4375 53.972656 73.257812 56.554688 C 71.59375 58.527344 66.433594 63.710938 65.628906 64.222656 C 64.050781 65.222656 62.019531 65.515625 60.53125 64.960938 Z M 64.554688 62.910156 C 65.890625 62.429688 66.847656 61.519531 68.347656 59.3125 C 69.089844 58.21875 70.519531 56.210938 71.523438 54.847656 C 72.527344 53.480469 73.898438 51.535156 74.566406 50.515625 C 75.238281 49.5 75.988281 48.496094 76.238281 48.289062 C 76.652344 47.945312 76.738281 47.730469 77.144531 46.046875 C 78.558594 40.226562 79.386719 33.367188 79.359375 27.726562 C 79.34375 24.632812 79.09375 20.117188 78.921875 19.753906 C 78.804688 19.503906 76.703125 18.78125 74.203125 18.125 C 68.171875 16.550781 60.980469 16.089844 54.675781 16.875 C 52.929688 17.089844 49.132812 17.824219 47.851562 18.195312 L 46.929688 18.460938 L 46.820312 19.289062 C 45.816406 26.902344 46.136719 35.011719 47.726562 42.492188 C 48.636719 46.769531 48.960938 47.757812 49.960938 49.34375 C 50.464844 50.140625 50.953125 50.945312 51.039062 51.132812 C 51.128906 51.320312 51.59375 52.070312 52.070312 52.796875 C 52.546875 53.527344 53.417969 54.894531 54.007812 55.839844 C 57.03125 60.695312 59.191406 63.042969 60.667969 63.082031 C 61.183594 63.097656 61.183594 63.117188 60.804688 60.613281 C 60.449219 58.246094 60.464844 56.84375 60.871094 55.351562 C 61.253906 53.941406 61.253906 53.957031 60.839844 53.410156 C 60.503906 52.96875 60.3125 52.882812 58.460938 52.328125 C 58.121094 52.226562 57.691406 52.007812 57.503906 51.839844 L 57.167969 51.539062 L 58.203125 51.667969 C 58.769531 51.738281 60.820312 51.855469 62.753906 51.929688 C 66.214844 52.054688 66.304688 52.050781 67.875 51.691406 C 70.082031 51.183594 71 50.710938 72.121094 49.511719 C 73.050781 48.511719 74.140625 46.714844 74.070312 46.28125 C 74.046875 46.121094 73.828125 46.3125 73.394531 46.882812 C 73.042969 47.34375 72.507812 47.992188 72.199219 48.320312 L 71.644531 48.921875 L 69.246094 48.855469 C 67.1875 48.800781 66.84375 48.820312 66.839844 49.011719 C 66.828125 49.460938 66.140625 49.523438 63.097656 49.347656 C 59.105469 49.121094 58.304688 49.015625 58.027344 48.703125 C 57.847656 48.5 57.371094 48.398438 55.800781 48.222656 C 52.648438 47.875 52.773438 47.957031 51.257812 45.230469 C 50.074219 43.097656 49.484375 42.191406 49.207031 42.070312 C 48.960938 41.96875 48.550781 41.496094 48.707031 41.5 C 48.757812 41.5 48.957031 41.617188 49.152344 41.757812 C 49.90625 42.304688 52.414062 41.960938 54.976562 40.960938 C 55.746094 40.660156 56.585938 40.402344 56.84375 40.386719 L 57.316406 40.359375 L 57.34375 41.074219 C 57.363281 41.703125 57.34375 41.765625 57.15625 41.59375 C 57.039062 41.484375 56.949219 41.246094 56.953125 41.054688 C 56.964844 40.632812 56.75 40.605469 56.535156 41 C 56.355469 41.332031 55.597656 41.6875 55.113281 41.671875 C 54.675781 41.660156 52.335938 42.5 52.257812 42.703125 C 52.171875 42.90625 52.832031 44.375 53.378906 45.207031 L 53.792969 45.832031 L 55.550781 45.878906 C 56.519531 45.90625 57.542969 45.867188 57.820312 45.792969 C 58.382812 45.644531 59.183594 44.859375 59.480469 44.15625 C 59.667969 43.714844 59.660156 43.691406 59.054688 43.078125 C 58.714844 42.734375 58.441406 42.394531 58.441406 42.324219 C 58.449219 41.988281 60.683594 42.453125 61.902344 43.039062 C 62.507812 43.332031 62.585938 43.335938 63.285156 43.144531 C 63.691406 43.035156 64.730469 42.804688 65.589844 42.636719 L 67.160156 42.328125 L 67.300781 42.625 C 67.488281 43.015625 67.253906 43.191406 66.140625 43.507812 C 65.164062 43.785156 65.097656 44 65.679688 45.007812 C 66.503906 46.425781 67.105469 46.761719 68.898438 46.816406 C 70.417969 46.863281 70.789062 46.707031 71.691406 45.652344 C 72.546875 44.65625 72.96875 43.960938 72.851562 43.753906 C 72.8125 43.683594 71.9375 43.128906 70.910156 42.53125 C 69.878906 41.929688 68.949219 41.351562 68.835938 41.246094 C 68.460938 40.886719 68.242188 40.929688 68.132812 41.378906 L 68.023438 41.808594 L 68.019531 41.367188 C 68.007812 40.339844 68.632812 40.355469 70.808594 41.433594 C 73.808594 42.921875 75.375 43.332031 76.429688 42.90625 C 76.636719 42.824219 76.617188 42.910156 76.316406 43.429688 C 76.089844 43.820312 75.949219 44.277344 75.9375 44.660156 C 75.925781 45 75.789062 45.605469 75.628906 46.011719 C 75.175781 47.167969 73.707031 49.601562 72.289062 51.542969 C 71.578125 52.515625 70.636719 53.8125 70.195312 54.425781 C 69.753906 55.035156 69.082031 55.863281 68.695312 56.265625 C 68.027344 56.957031 68 56.972656 68.097656 56.5625 C 68.269531 55.824219 69.132812 54.136719 70.058594 52.722656 C 70.550781 51.976562 70.929688 51.304688 70.90625 51.234375 C 70.882812 51.160156 70.203125 51.339844 69.398438 51.632812 C 67.554688 52.304688 66.589844 52.609375 65.703125 52.796875 C 64.878906 52.972656 64.402344 53.289062 64.03125 53.910156 C 63.769531 54.351562 63.769531 54.414062 63.960938 55.359375 C 64.222656 56.640625 64.199219 57.164062 63.828125 58.667969 C 63.4375 60.25 63.039062 62.335938 63.027344 62.894531 C 63.015625 63.292969 63.046875 63.320312 63.398438 63.257812 C 63.613281 63.21875 64.132812 63.0625 64.554688 62.910156 Z M 64.777344 48.578125 C 64.78125 48.347656 63.050781 45.824219 62.820312 45.726562 C 62.710938 45.679688 62.511719 45.695312 62.378906 45.765625 C 62.054688 45.9375 59.953125 48.128906 59.945312 48.304688 C 59.941406 48.488281 60.605469 48.566406 62.875 48.65625 C 64.152344 48.707031 64.773438 48.683594 64.777344 48.578125 Z M 64.777344 48.578125 "/>
<path style=" stroke:none;fill-rule:nonzero;fill:rgb(0%,0%,0%);fill-opacity:1;" d="M 76.433594 35.859375 C 75.847656 35.605469 75.011719 35.542969 74.03125 35.679688 L 73.378906 35.765625 L 73.921875 35.429688 C 74.433594 35.117188 74.46875 35.066406 74.449219 34.660156 C 74.402344 33.613281 73.488281 32.515625 72.144531 31.886719 L 71.339844 31.507812 L 70.207031 31.621094 C 68.378906 31.804688 67.109375 32.261719 66.375 33.003906 C 66.03125 33.351562 66.007812 33.496094 66.234375 33.980469 C 66.441406 34.425781 66.316406 34.421875 65.871094 33.976562 C 65.5625 33.664062 65.535156 33.589844 65.648438 33.355469 C 65.953125 32.722656 66.53125 32.351562 68.058594 31.800781 C 70.292969 30.992188 71.761719 30.953125 73.128906 31.671875 C 73.902344 32.078125 74.078125 32.273438 74.796875 33.507812 L 75.242188 34.277344 L 75.867188 34.261719 C 76.296875 34.253906 76.554688 34.183594 76.707031 34.039062 C 76.824219 33.921875 76.921875 33.875 76.921875 33.933594 C 76.917969 33.996094 76.820312 34.109375 76.703125 34.191406 C 76.476562 34.339844 76.390625 34.808594 76.585938 34.808594 C 76.648438 34.808594 76.695312 34.859375 76.695312 34.917969 C 76.695312 34.976562 76.609375 35 76.503906 34.972656 C 76.402344 34.945312 76.242188 34.976562 76.152344 35.042969 C 75.984375 35.164062 76.023438 35.210938 76.894531 35.960938 C 77.113281 36.144531 77.066406 36.132812 76.433594 35.859375 Z M 51.25 34.773438 C 50.832031 34.644531 50.136719 34.507812 49.703125 34.472656 C 49.132812 34.425781 48.917969 34.363281 48.921875 34.242188 C 48.921875 34.152344 48.835938 34.070312 48.730469 34.058594 C 48.628906 34.050781 48.472656 34.035156 48.386719 34.03125 C 48.300781 34.023438 48.167969 33.835938 48.085938 33.617188 C 47.941406 33.226562 47.945312 33.21875 48.191406 33.308594 C 49.15625 33.652344 49.71875 33.457031 50.183594 32.613281 C 50.582031 31.882812 51.3125 31.171875 52.03125 30.816406 C 52.640625 30.515625 52.734375 30.503906 53.933594 30.5625 C 55.78125 30.65625 56.109375 30.871094 54.375 30.855469 C 52.746094 30.839844 52.085938 31.058594 51.316406 31.878906 C 50.726562 32.507812 50.242188 33.53125 50.402344 33.8125 C 50.558594 34.089844 51.148438 34.398438 51.957031 34.621094 C 52.34375 34.726562 52.703125 34.863281 52.761719 34.921875 C 52.941406 35.109375 52.039062 35.023438 51.25 34.773438 Z M 72.445312 34.511719 C 71.785156 34.105469 69.917969 33.988281 68.777344 34.289062 C 68.054688 34.476562 68.027344 34.476562 67.246094 34.191406 C 66.613281 33.964844 66.449219 33.859375 66.449219 33.671875 C 66.453125 33.355469 67.554688 32.78125 68.789062 32.453125 C 69.652344 32.222656 69.851562 32.210938 70.757812 32.320312 C 71.308594 32.390625 71.984375 32.554688 72.257812 32.6875 C 73.386719 33.230469 74.019531 33.960938 73.734375 34.386719 C 73.546875 34.664062 72.808594 34.734375 72.445312 34.511719 Z M 58.144531 34.136719 C 58.144531 34.097656 58.253906 33.902344 58.382812 33.703125 C 58.53125 33.480469 58.617188 33.183594 58.613281 32.917969 L 58.605469 32.488281 L 58.8125 32.769531 C 59.191406 33.269531 59.050781 33.707031 58.390625 34.074219 C 58.253906 34.148438 58.144531 34.179688 58.144531 34.136719 Z M 51.09375 33.753906 C 50.515625 33.4375 50.558594 33.15625 51.265625 32.601562 C 52.101562 31.945312 52.75 31.699219 53.832031 31.628906 C 54.550781 31.582031 54.953125 31.625 55.640625 31.8125 C 56.65625 32.09375 57.609375 32.574219 57.957031 32.980469 C 58.167969 33.230469 58.175781 33.28125 58.03125 33.4375 C 57.785156 33.707031 56.667969 33.929688 56.421875 33.761719 C 56.042969 33.5 54.910156 33.347656 53.738281 33.394531 C 52.796875 33.433594 52.472656 33.492188 52.105469 33.703125 C 51.550781 34.015625 51.566406 34.011719 51.09375 33.753906 Z M 64.464844 31.148438 C 64.472656 30.636719 64.683594 30.300781 65.296875 29.828125 C 65.421875 29.734375 65.65625 29.460938 65.824219 29.222656 C 66.113281 28.8125 66.117188 28.785156 65.917969 28.714844 C 65.648438 28.621094 65.546875 28.0625 65.753906 27.8125 C 65.992188 27.523438 65.941406 27.449219 65.558594 27.527344 C 65.335938 27.570312 65.128906 27.539062 65.007812 27.441406 C 64.820312 27.289062 64.820312 27.261719 65.03125 26.753906 C 65.347656 25.964844 66.207031 24.917969 66.917969 24.453125 C 67.691406 23.941406 68.742188 23.507812 69.960938 23.191406 C 71.125 22.890625 73.25 22.875 74.183594 23.160156 C 74.996094 23.414062 75.890625 24.105469 76.367188 24.855469 C 77.058594 25.945312 77.429688 28.257812 76.964844 28.574219 C 76.839844 28.65625 76.664062 28.585938 76.292969 28.296875 L 75.789062 27.910156 L 75.039062 28.0625 C 74.628906 28.148438 74.003906 28.191406 73.652344 28.15625 C 72.792969 28.078125 71.476562 28.25 70.335938 28.585938 C 69.34375 28.882812 69.078125 29.003906 68.550781 29.421875 C 67.992188 29.863281 67.34375 30.070312 66.507812 30.070312 C 65.542969 30.074219 65.242188 30.226562 64.953125 30.867188 C 64.59375 31.664062 64.460938 31.742188 64.46875 31.148438 Z M 59.5625 30.789062 C 59.402344 30.605469 59.089844 30.359375 58.863281 30.246094 C 58.636719 30.132812 58.238281 29.929688 57.980469 29.796875 C 57.71875 29.664062 57.257812 29.289062 56.957031 28.972656 C 56.277344 28.253906 56.023438 28.101562 55.296875 27.996094 C 54.984375 27.949219 54.230469 27.722656 53.621094 27.496094 C 51.851562 26.832031 50.566406 26.84375 49.046875 27.535156 L 48.402344 27.828125 L 48.183594 27.582031 C 47.851562 27.21875 47.878906 25.847656 48.234375 25 C 48.519531 24.320312 49.160156 23.621094 49.738281 23.359375 C 50.589844 22.972656 52.433594 22.578125 53.050781 22.648438 C 54.746094 22.84375 55.816406 23.265625 57.976562 24.597656 C 59.589844 25.589844 59.828125 25.917969 59.246094 26.328125 C 58.910156 26.566406 58.867188 27.136719 59.171875 27.371094 C 59.402344 27.546875 59.421875 28.191406 59.199219 28.429688 C 58.980469 28.664062 59.035156 28.875 59.472656 29.417969 C 59.832031 29.871094 60.128906 30.589844 60.128906 30.996094 C 60.125 31.234375 59.859375 31.136719 59.5625 30.789062 Z M 59.5625 30.789062 "/>
<path style=" stroke:none;fill-rule:nonzero;fill:rgb(0%,0%,0%);fill-opacity:1;" d="M 55.457031 55.34375 C 54.679688 54.808594 54.015625 53.976562 53.183594 52.503906 C 52.800781 51.816406 51.859375 50.199219 51.09375 48.910156 C 48.984375 45.339844 48.128906 42.671875 49.054688 42.523438 C 49.25 42.488281 49.742188 43.304688 50.550781 45.015625 C 51.40625 46.824219 52.0625 47.902344 52.832031 48.761719 C 53.425781 49.421875 53.789062 49.960938 53.632812 49.957031 C 53.480469 49.953125 53.355469 50.035156 53.351562 50.140625 C 53.347656 50.347656 55.242188 54.078125 55.816406 54.988281 C 56.285156 55.730469 56.175781 55.839844 55.457031 55.34375 Z M 55.457031 55.34375 "/>
<path style=" stroke:none;fill-rule:nonzero;fill:rgb(100%,100%,100%);fill-opacity:1;" d="M 63.121094 62.84375 C 63.132812 62.65625 63.398438 61.242188 63.714844 59.699219 C 64.109375 57.777344 64.234375 56.507812 64.105469 55.660156 C 63.816406 53.777344 64.234375 53.378906 67.527344 52.382812 C 69.089844 51.914062 70.402344 51.570312 70.449219 51.621094 C 70.492188 51.671875 70.03125 52.546875 69.417969 53.566406 C 68.808594 54.582031 68.210938 55.804688 68.089844 56.277344 L 67.875 57.136719 L 68.648438 56.4375 C 69.644531 55.535156 73.429688 50.292969 74.691406 48.070312 C 75.226562 47.128906 75.804688 45.769531 75.980469 45.042969 C 76.15625 44.320312 76.371094 43.546875 76.457031 43.320312 C 76.582031 43.007812 76.316406 42.898438 75.304688 42.835938 C 74.503906 42.789062 73.066406 42.328125 71.617188 41.652344 C 70.3125 41.042969 68.984375 40.539062 68.664062 40.53125 C 68.070312 40.511719 67.582031 41.238281 67.945312 41.605469 C 68.054688 41.722656 68.203125 41.664062 68.273438 41.480469 C 68.402344 41.132812 68.40625 41.132812 71.433594 43.039062 L 72.734375 43.855469 L 72.21875 44.722656 C 71.382812 46.136719 70.515625 46.652344 69.03125 46.613281 C 67.367188 46.566406 66.523438 46.148438 65.960938 45.085938 C 65.378906 43.988281 65.378906 43.984375 66.507812 43.527344 C 67.5 43.125 67.78125 42.621094 67.160156 42.359375 C 66.972656 42.28125 65.871094 42.425781 64.710938 42.683594 C 62.964844 43.074219 62.441406 43.089844 61.652344 42.78125 C 60.21875 42.21875 58.394531 41.894531 58.386719 42.203125 C 58.382812 42.351562 58.621094 42.714844 58.917969 43.011719 C 59.636719 43.730469 59.589844 44.078125 58.644531 44.976562 C 57.925781 45.660156 57.652344 45.726562 55.769531 45.671875 L 53.6875 45.617188 L 52.289062 42.75 L 53.414062 42.316406 C 54.03125 42.074219 54.691406 41.882812 54.875 41.886719 C 55.0625 41.890625 55.5625 41.71875 55.980469 41.503906 C 56.425781 41.277344 56.8125 41.226562 56.898438 41.386719 C 57.121094 41.785156 57.570312 41.734375 57.578125 41.3125 C 57.59375 40.1875 57.183594 40.148438 54.378906 41.011719 C 52.128906 41.703125 51.328125 41.820312 50.007812 41.664062 C 48.921875 41.535156 48.480469 41.570312 48.660156 41.773438 C 48.8125 41.9375 48.859375 42.542969 48.769531 43.125 C 48.644531 43.949219 48.816406 44.621094 49.566406 46.226562 C 50.964844 49.230469 54.332031 54.730469 55.121094 55.300781 C 56.476562 56.285156 56.441406 55.886719 54.898438 52.984375 C 54.230469 51.726562 53.660156 50.390625 53.628906 50.019531 C 53.601562 49.644531 53.257812 48.972656 52.871094 48.527344 C 51.917969 47.433594 51.984375 47.28125 53.199219 47.769531 C 54.53125 48.304688 57.566406 48.863281 61.523438 49.304688 C 64.746094 49.660156 66.636719 49.601562 66.929688 49.132812 C 67.019531 48.992188 68.105469 48.902344 69.339844 48.9375 C 71.402344 48.992188 71.65625 48.933594 72.382812 48.242188 C 73.5 47.179688 73.359375 47.839844 72.179688 49.207031 C 70.25 51.441406 67.21875 52.09375 60.785156 51.664062 C 56.640625 51.382812 56.058594 51.644531 58.792969 52.558594 C 60.800781 53.230469 61.203125 53.769531 60.773438 55.222656 C 60.453125 56.320312 60.46875 59.472656 60.808594 61.789062 C 60.953125 62.789062 60.914062 62.878906 60.335938 62.863281 C 58.691406 62.816406 50.308594 50.859375 48.925781 46.585938 C 48.136719 44.152344 47.265625 39.707031 46.769531 35.59375 C 46.355469 32.140625 46.4375 20.957031 46.894531 19.351562 C 47.144531 18.460938 47.683594 18.25 51.636719 17.515625 C 59.484375 16.058594 68.207031 16.511719 75.980469 18.777344 C 77.214844 19.136719 78.367188 19.53125 78.546875 19.65625 C 79.570312 20.355469 79.261719 33.828125 78.0625 40.785156 C 77.167969 45.992188 76.765625 47.285156 75.535156 48.960938 C 74.960938 49.738281 72.863281 52.675781 70.871094 55.484375 C 66.234375 62.023438 65.84375 62.441406 63.894531 62.972656 C 63.335938 63.121094 63.105469 63.082031 63.121094 62.84375 Z M 76.847656 35.753906 C 76.542969 35.347656 76.574219 34.742188 76.921875 34.191406 C 77.078125 33.945312 76.882812 33.890625 76.199219 33.984375 C 75.359375 34.105469 75.207031 34.015625 74.691406 33.089844 C 73.882812 31.632812 72.519531 30.980469 70.558594 31.113281 C 67.71875 31.304688 64.585938 33.265625 65.792969 34.09375 C 65.976562 34.222656 67.359375 34.3125 68.867188 34.296875 C 70.375 34.28125 71.910156 34.398438 72.277344 34.558594 C 73.078125 34.902344 73.785156 34.695312 73.800781 34.113281 C 73.804688 33.882812 73.933594 33.777344 74.082031 33.878906 C 74.523438 34.183594 74.367188 35.109375 73.835938 35.347656 C 73.488281 35.503906 73.785156 35.632812 74.863281 35.792969 C 75.695312 35.917969 76.546875 36.042969 76.753906 36.074219 C 77.03125 36.117188 77.058594 36.03125 76.847656 35.753906 Z M 52.769531 34.914062 C 52.773438 34.765625 52.375 34.542969 51.886719 34.417969 L 50.992188 34.183594 L 52.246094 33.832031 C 53.542969 33.464844 58.382812 33.5625 58.140625 33.953125 C 58.070312 34.070312 58.125 34.167969 58.269531 34.171875 C 58.722656 34.183594 59.183594 33.417969 59.015625 32.929688 C 58.847656 32.425781 58.367188 32.257812 58.355469 32.699219 C 58.351562 32.839844 57.90625 32.703125 57.359375 32.394531 C 56.816406 32.085938 55.820312 31.730469 55.140625 31.605469 C 54.042969 31.402344 53.523438 31.476562 51.460938 32.148438 C 51.230469 32.222656 51.359375 32.027344 51.746094 31.714844 C 52.179688 31.363281 53.09375 31.082031 54.117188 30.980469 L 55.777344 30.820312 L 54.679688 30.535156 C 53.019531 30.105469 51.699219 30.59375 50.429688 32.109375 C 49.542969 33.164062 49.222656 33.367188 48.597656 33.257812 C 48.179688 33.183594 47.839844 33.195312 47.839844 33.289062 C 47.839844 33.851562 48.464844 34.238281 50.027344 34.640625 C 52.207031 35.199219 52.761719 35.257812 52.769531 34.914062 Z M 66.5625 30.183594 C 67.179688 30.09375 68.253906 29.730469 68.945312 29.375 C 70.777344 28.445312 75.707031 27.722656 76.046875 28.335938 C 76.125 28.472656 76.429688 28.59375 76.722656 28.601562 C 77.90625 28.632812 77.027344 24.816406 75.617188 23.792969 C 73.128906 21.988281 67.566406 22.945312 65.695312 25.503906 C 64.8125 26.710938 64.601562 27.691406 65.226562 27.710938 C 65.929688 27.730469 65.886719 29.097656 65.164062 29.773438 C 64.792969 30.121094 64.492188 30.722656 64.484375 31.140625 L 64.472656 31.882812 L 64.957031 31.117188 C 65.300781 30.570312 65.761719 30.304688 66.5625 30.183594 Z M 60.148438 30.527344 C 60.058594 30.25 59.816406 29.730469 59.605469 29.367188 C 59.398438 29.003906 59.3125 28.496094 59.414062 28.242188 C 59.515625 27.984375 59.460938 27.589844 59.292969 27.367188 C 59.066406 27.0625 59.078125 26.859375 59.339844 26.542969 C 59.953125 25.808594 59.453125 25.25 57.03125 23.949219 C 55.050781 22.890625 54.398438 22.679688 52.96875 22.640625 C 50.949219 22.585938 48.9375 23.40625 48.320312 24.535156 C 47.898438 25.3125 47.722656 27.339844 48.050781 27.699219 C 48.152344 27.816406 48.9375 27.699219 49.785156 27.445312 C 51.296875 26.992188 51.394531 27 53.785156 27.6875 C 55.132812 28.074219 56.382812 28.589844 56.5625 28.828125 C 56.742188 29.066406 57.472656 29.59375 58.183594 29.992188 C 58.890625 30.394531 59.550781 30.859375 59.644531 31.027344 C 59.90625 31.503906 60.328125 31.085938 60.148438 30.527344 Z M 60.148438 30.527344 "/>
<path style="fill-rule:nonzero;fill:url(#linear0);stroke-width:6.199962;stroke-linecap:round;stroke-linejoin:round;stroke:rgb(0%,0%,0%);stroke-opacity:1;stroke-miterlimit:4;" d="M 211.728516 459.755625 C 211.728516 475.689375 203.897461 488.6175 194.260254 488.6175 C 184.609863 488.6175 176.791992 475.689375 176.778809 459.755625 C 176.778809 443.795625 184.59668 430.8675 194.260254 430.8675 C 203.910645 430.8675 211.728516 443.795625 211.728516 459.755625 Z M 211.728516 459.755625 " transform="matrix(0.296296,0,0,0.297619,0,0)"/>
<path style="fill-rule:nonzero;fill:url(#linear1);stroke-width:6.199962;stroke-linecap:round;stroke-linejoin:round;stroke:rgb(0%,0%,0%);stroke-opacity:1;stroke-miterlimit:4;" d="M 169.422363 459.755625 C 169.40918 475.689375 161.591309 488.604375 151.954102 488.604375 C 142.303711 488.604375 134.48584 475.689375 134.472656 459.755625 C 134.472656 443.795625 142.290527 430.854375 151.954102 430.854375 C 161.604492 430.854375 169.422363 443.795625 169.422363 459.755625 Z M 169.422363 459.755625 " transform="matrix(0.296296,0,0,0.297619,0,0)"/>
<path style="fill-rule:nonzero;fill:url(#linear2);stroke-width:6.199962;stroke-linecap:round;stroke-linejoin:round;stroke:rgb(0%,0%,0%);stroke-opacity:1;stroke-miterlimit:4;" d="M 190.278809 459.755625 C 190.265625 475.689375 182.447754 488.6175 172.797363 488.6175 C 163.160156 488.6175 155.342285 475.689375 155.329102 459.755625 C 155.329102 443.795625 163.146973 430.8675 172.797363 430.8675 C 182.460938 430.8675 190.278809 443.795625 190.278809 459.755625 Z M 190.278809 459.755625 " transform="matrix(0.296296,0,0,0.297619,0,0)"/>
<path style="fill-rule:nonzero;fill:url(#linear3);stroke-width:6.199962;stroke-linecap:round;stroke-linejoin:round;stroke:rgb(0%,0%,0%);stroke-opacity:1;stroke-miterlimit:4;" d="M 306.123047 459.755625 C 306.123047 475.689375 298.291992 488.6175 288.654785 488.6175 C 279.004395 488.6175 271.186523 475.689375 271.186523 459.755625 C 271.17334 443.795625 279.004395 430.8675 288.654785 430.8675 C 298.305176 430.8675 306.123047 443.795625 306.123047 459.755625 Z M 306.123047 459.755625 " transform="matrix(0.296296,0,0,0.297619,0,0)"/>
<path style="fill-rule:nonzero;fill:url(#linear4);stroke-width:6.199962;stroke-linecap:round;stroke-linejoin:round;stroke:rgb(0%,0%,0%);stroke-opacity:1;stroke-miterlimit:4;" d="M 263.843262 459.755625 C 263.843262 475.689375 256.025391 488.6175 246.375 488.6175 C 236.724609 488.6175 228.906738 475.689375 228.906738 459.755625 C 228.906738 443.795625 236.724609 430.8675 246.375 430.8675 C 256.025391 430.8675 263.856445 443.795625 263.843262 459.755625 Z M 263.843262 459.755625 " transform="matrix(0.296296,0,0,0.297619,0,0)"/>
<path style="fill-rule:nonzero;fill:url(#linear5);stroke-width:6.199962;stroke-linecap:round;stroke-linejoin:round;stroke:rgb(0%,0%,0%);stroke-opacity:1;stroke-miterlimit:4;" d="M 284.67334 459.755625 C 284.67334 475.7025 276.855469 488.630625 267.205078 488.630625 C 257.554688 488.630625 249.723633 475.7025 249.723633 459.755625 C 249.723633 443.80875 257.554688 430.880625 267.205078 430.880625 C 276.855469 430.880625 284.67334 443.80875 284.67334 459.755625 Z M 284.67334 459.755625 " transform="matrix(0.296296,0,0,0.297619,0,0)"/>
<path style=" stroke:none;fill-rule:nonzero;fill:rgb(0%,0%,0%);fill-opacity:0.313725;" d="M 45.027344 128.234375 C 42.917969 128.234375 41.109375 130.335938 40.304688 133.339844 C 47.195312 135.234375 54.765625 136.339844 62.722656 136.492188 C 62.617188 131.90625 60.347656 128.234375 57.558594 128.234375 C 56.359375 128.234375 55.257812 128.914062 54.378906 130.050781 C 53.503906 128.914062 52.402344 128.234375 51.203125 128.234375 C 50.042969 128.234375 48.976562 128.867188 48.113281 129.933594 C 47.25 128.867188 46.183594 128.234375 45.027344 128.234375 Z M 73 128.234375 C 70.214844 128.234375 67.953125 131.886719 67.832031 136.457031 C 75.78125 136.191406 83.3125 134.96875 90.152344 132.96875 C 89.300781 130.164062 87.550781 128.234375 85.53125 128.234375 C 84.332031 128.234375 83.230469 128.914062 82.351562 130.050781 C 81.472656 128.914062 80.371094 128.234375 79.171875 128.234375 C 78.015625 128.234375 76.949219 128.867188 76.085938 129.933594 C 75.222656 128.867188 74.15625 128.234375 72.996094 128.234375 Z M 73 128.234375 "/>
<path style="fill-rule:nonzero;fill:url(#linear6);stroke-width:6.199326;stroke-linecap:butt;stroke-linejoin:miter;stroke:rgb(0%,0%,0%);stroke-opacity:1;stroke-miterlimit:4;" d="M 58.231934 481.438125 L 58.231934 489.050625 C 58.231934 496.20375 63.953613 501.9525 71.099121 501.9525 L 93.854004 501.9525 L 93.854004 498.316875 L 341.507812 498.316875 L 341.507812 501.9525 L 363.023438 501.9525 C 370.155762 501.9525 375.916992 496.20375 375.916992 489.050625 L 375.916992 481.438125 L 58.21875 481.438125 Z M 58.231934 481.438125 " transform="matrix(0.296296,0,0,0.297619,0,0)"/>
<path style="fill-rule:nonzero;fill:rgb(60%,60%,60%);fill-opacity:1;stroke-width:6.199326;stroke-linecap:butt;stroke-linejoin:miter;stroke:rgb(0%,0%,0%);stroke-opacity:1;stroke-miterlimit:4;" d="M 57.414551 272.81625 L 379.001953 272.81625 C 386.872559 272.81625 393.200684 278.5125 393.200684 285.6 L 382.693359 478.93125 C 382.693359 486.005625 377.472656 491.701875 369.602051 491.701875 L 70.387207 491.701875 C 62.529785 491.701875 53.499023 486.005625 53.499023 478.93125 L 43.21582 285.6 C 43.21582 278.5125 49.543945 272.81625 57.414551 272.81625 Z M 57.414551 272.81625 " transform="matrix(0.296296,0,0,0.297619,0,0)"/>
</g>
</svg>
